<svg width="16" height="16" viewBox="0 0 16 16" fill="none" xmlns="http://www.w3.org/2000/svg">
<rect width="16" height="16" fill="#F5F5F5"/>
<g id="Railway" clip-path="url(#clip0_98_43)">
<rect width="1440" height="800" transform="translate(-1193 -102)" fill="white"/>
<g id="Frame 109">
<rect width="1440" height="868" transform="translate(-1193 -102)" fill="black" fill-opacity="0.4"/>
<g id="Frame 110">
<rect x="-991" y="-20" width="1037" height="649" rx="10" fill="white"/>
<g id="Frame 91">
<mask id="path-2-inside-1_98_43" fill="white">
<path d="M-991 -10C-991 -15.5228 -986.523 -20 -981 -20H36C41.5228 -20 46 -15.5228 46 -10V36H-991V-10Z"/>
</mask>
<path d="M-991 -10C-991 -15.5228 -986.523 -20 -981 -20H36C41.5228 -20 46 -15.5228 46 -10V36H-991V-10Z" fill="#F5F4F9"/>
<path id="Vector 78" d="M2 2L14 14M14 2L2 14" stroke="#0B2170" stroke-width="3" stroke-linecap="round" stroke-linejoin="round"/>
<path d="M-991 -20H46H-991ZM46 37H-991V35H46V37ZM-991 36V-20V36ZM46 -20V36V-20Z" fill="black" fill-opacity="0.1" mask="url(#path-2-inside-1_98_43)"/>
</g>
</g>
</g>
</g>
<defs>
<clipPath id="clip0_98_43">
<rect width="1440" height="800" fill="white" transform="translate(-1193 -102)"/>
</clipPath>
</defs>
</svg>
